<svg width="412" height="184" viewBox="0 0 412 184" fill="none" xmlns="http://www.w3.org/2000/svg">
<mask id="mask0_19_600" style="mask-type:luminance" maskUnits="userSpaceOnUse" x="0" y="44" width="197" height="140">
<path d="M0 44.9844H197V183.651H0V44.9844Z" fill="white"/>
</mask>
<g mask="url(#mask0_19_600)">
<path fill-rule="evenodd" clip-rule="evenodd" d="M195.052 179.698C195.052 179.698 178.031 170.427 148.167 168.958C135.016 168.312 119.354 169.182 101.552 173.047L5.59912 52.4219C8.02099 51.8698 11.9845 51.0625 17.146 50.3437C21.297 49.7656 26.2033 49.2448 31.7085 48.9427C32.7189 48.8906 33.495 48.026 33.4377 47.0156C33.3804 46.0052 32.521 45.2344 31.5106 45.2865C25.8908 45.5937 20.8752 46.125 16.646 46.7187C7.41162 48.0052 1.89079 49.5573 1.89079 49.5573C1.29704 49.724 0.833494 50.1771 0.645994 50.7604C0.453286 51.3437 0.567868 51.9792 0.953286 52.4635L99.396 176.219C99.8335 176.766 100.542 177.016 101.229 176.865C119.12 172.875 134.839 171.969 147.99 172.615C176.844 174.036 193.307 182.911 193.307 182.911C194.198 183.396 195.307 183.068 195.787 182.177C196.271 181.286 195.938 180.177 195.052 179.698Z" fill="white"/>
</g>
<mask id="mask1_19_600" style="mask-type:luminance" maskUnits="userSpaceOnUse" x="33" y="0" width="164" height="184">
<path d="M33 0H197V183.651H33V0Z" fill="white"/>
</mask>
<g mask="url(#mask1_19_600)">
<path fill-rule="evenodd" clip-rule="evenodd" d="M195.927 180.229C195.927 180.229 185.396 162.495 159.037 151.26C147.359 146.286 132.563 142.578 114.172 142.292C114.172 142.292 49.1616 23.8281 38.4428 4.30207C45.2918 4.40624 62.8959 5.27603 82.7084 10.9687C96.8178 15.0208 112.047 21.5208 125.292 31.9635C126.089 32.5937 127.24 32.4531 127.865 31.6615C128.49 30.8646 128.354 29.7135 127.563 29.0885C113.922 18.3385 98.2449 11.6198 83.7189 7.45312C57.6459 -0.0416743 35.3022 0.645824 35.3022 0.645824C34.6616 0.666658 34.0834 1.01562 33.7657 1.57291C33.4532 2.11978 33.4428 2.80207 33.7501 3.35416L111.479 144.99C111.797 145.573 112.406 145.932 113.068 145.943C131.375 146.094 146.068 149.714 157.599 154.625C182.693 165.323 192.781 182.104 192.781 182.104C193.302 182.974 194.427 183.26 195.297 182.74C196.162 182.219 196.448 181.094 195.927 180.229Z" fill="white"/>
</g>
<path fill-rule="evenodd" clip-rule="evenodd" d="M195.5 179.969C195.5 179.969 181.953 168.286 153.141 162.724C141.078 160.396 126.328 159.141 108.745 160.286L22.4429 28.6041C24.9377 28.427 28.9013 28.2343 33.9846 28.2864C38.1721 28.3333 43.1044 28.5468 48.5888 29.0677C49.594 29.1666 50.4898 28.427 50.5888 27.4166C50.6825 26.4114 49.9429 25.5208 48.9377 25.4218C43.3336 24.8906 38.2971 24.6718 34.0263 24.625C24.7033 24.526 19.0106 25.2395 19.0106 25.2395C18.3856 25.3177 17.8388 25.7187 17.5783 26.2916C17.3127 26.8645 17.3596 27.5364 17.7086 28.0625L106.276 163.187C106.636 163.74 107.271 164.057 107.927 164.01C125.604 162.771 140.401 164 152.443 166.318C180.084 171.651 193.115 182.75 193.115 182.75C193.886 183.406 195.042 183.318 195.698 182.552C196.354 181.781 196.266 180.625 195.5 179.969Z" fill="white"/>
<path d="M169.244 70.9491C169.244 77.2564 166.978 82.8137 162.452 87.6158C157.978 92.4231 152.609 94.8241 146.348 94.8241C140.181 94.8241 134.786 92.3762 130.161 87.4699C125.744 82.7616 123.536 77.2564 123.536 70.9491C123.536 64.6314 125.77 59.0897 130.244 54.3241C134.713 49.5741 140.083 47.1991 146.348 47.1991C152.609 47.1991 157.978 49.5741 162.452 54.3241C166.978 59.0897 169.244 64.6314 169.244 70.9491ZM159.702 67.6158C159.702 61.8241 158.921 57.5116 157.369 54.6783C155.254 50.9178 151.583 49.0324 146.348 49.0324C141.208 49.0324 137.583 50.9439 135.473 54.7616C133.859 57.6366 133.056 61.9231 133.056 67.6158V74.3241C133.056 86.772 137.484 92.9908 146.348 92.9908C155.249 92.9908 159.702 86.772 159.702 74.3241V67.6158Z" fill="white"/>
<path d="M199.976 94.3241H198.997L191.56 77.3032L185.414 94.3241H184.372L174.185 68.6157H169.31V66.9907H185.851V68.6157H181.185L187.33 84.0116L193.33 66.9907H194.33L201.747 84.0741L206.976 68.6157H201.039V66.9907H213.893V68.6157H208.81L199.976 94.3241Z" fill="white"/>
<path d="M240.6 85.2824C240.6 85.6574 240.527 86.0116 240.392 86.3449C238.225 91.7616 233.959 94.4699 227.6 94.4699C223.6 94.4699 220.23 93.1053 217.496 90.3657C214.715 87.5897 213.329 84.2928 213.329 80.4699C213.329 76.7095 214.715 73.3657 217.496 70.4491C220.329 67.4803 223.605 65.9907 227.329 65.9907C231.465 65.9907 234.787 67.4803 237.287 70.4491C239.121 72.6574 240.105 74.8761 240.246 77.0949C240.34 77.8866 239.85 78.2824 238.767 78.2824H221.6V84.7824C221.6 90.1574 223.647 92.8449 227.746 92.8449C232.881 92.8449 236.605 90.3553 238.912 85.3657C239.188 84.798 239.517 84.5116 239.892 84.5116C240.36 84.5116 240.6 84.772 240.6 85.2824ZM232.767 73.8449C232.767 69.7511 230.975 67.6991 227.392 67.6991C223.527 67.6991 221.6 69.8866 221.6 74.2616V76.5949H232.058C232.527 76.5949 232.767 75.6782 232.767 73.8449Z" fill="white"/>
<path d="M259.608 91.8657H264.692V73.2616C264.692 70.1678 263.447 68.6157 260.963 68.6157C259.306 68.6157 257.681 69.397 256.088 70.9491C254.473 72.4907 253.671 74.0897 253.671 75.7407V91.8657H258.754V93.5532H241.733V91.8657H246.817V68.6157H241.733V66.9907H253.671V71.2199C255.931 68.0116 259.254 66.4074 263.629 66.4074C268.963 66.4074 271.629 68.5532 271.629 72.8449V91.8657H276.713V93.5532H259.608V91.8657Z" fill="white"/>
<path d="M314.661 81.1157C314.661 85.4074 312.937 88.6366 309.494 90.8032C306.672 92.6366 302.974 93.5532 298.39 93.5532H276.286V91.8657H282.578V49.6782H276.286V47.9699H297.828C301.604 47.9699 304.953 48.798 307.869 50.4491C311.312 52.3397 313.036 55.0949 313.036 58.7199C313.036 63.9022 309.755 67.272 303.203 68.8241C306.271 69.5324 308.932 70.923 311.182 72.9907C313.5 75.298 314.661 78.0064 314.661 81.1157ZM305.39 58.1574C305.39 52.5064 302.869 49.6782 297.828 49.6782H290.265V68.1157H297.828C300.604 68.1157 302.609 67.3397 303.849 65.7824C304.875 64.4647 305.39 62.298 305.39 59.2824V58.1574ZM306.807 80.3449C306.807 73.3189 303.812 69.8032 297.828 69.8032H290.265V91.8657H297.828C301.078 91.8657 303.38 91.0428 304.744 89.3866C306.119 87.7355 306.807 85.2616 306.807 81.9699V80.3449Z" fill="white"/>
<path d="M345.673 80.2616C345.673 84.0428 344.184 87.3657 341.215 90.2407C338.241 93.0636 334.85 94.4699 331.048 94.4699C327.225 94.4699 323.809 93.0636 320.798 90.2407C317.783 87.3657 316.277 84.0428 316.277 80.2616C316.277 76.5011 317.783 73.1782 320.798 70.3032C323.809 67.4282 327.225 65.9907 331.048 65.9907C334.949 65.9907 338.34 67.4282 341.215 70.3032C344.184 73.2199 345.673 76.5428 345.673 80.2616ZM337.465 78.7824C337.465 75.298 337.204 72.8241 336.694 71.3657C335.803 68.923 333.923 67.6991 331.048 67.6991C328.116 67.6991 326.204 68.923 325.319 71.3657C324.746 72.7824 324.465 75.2563 324.465 78.7824V81.6782C324.465 85.2616 324.725 87.7824 325.257 89.2407C326.142 91.647 328.074 92.8449 331.048 92.8449C334.007 92.8449 335.908 91.6261 336.757 89.1782C337.225 88.0428 337.465 85.5428 337.465 81.6782V78.7824Z" fill="white"/>
<path d="M374.642 80.2616C374.642 84.0428 373.152 87.3657 370.184 90.2407C367.21 93.0636 363.819 94.4699 360.017 94.4699C356.194 94.4699 352.777 93.0636 349.767 90.2407C346.751 87.3657 345.246 84.0428 345.246 80.2616C345.246 76.5011 346.751 73.1782 349.767 70.3032C352.777 67.4282 356.194 65.9907 360.017 65.9907C363.918 65.9907 367.309 67.4282 370.184 70.3032C373.152 73.2199 374.642 76.5428 374.642 80.2616ZM366.434 78.7824C366.434 75.298 366.173 72.8241 365.663 71.3657C364.772 68.923 362.892 67.6991 360.017 67.6991C357.085 67.6991 355.173 68.923 354.288 71.3657C353.715 72.7824 353.434 75.2563 353.434 78.7824V81.6782C353.434 85.2616 353.694 87.7824 354.225 89.2407C355.111 91.647 357.043 92.8449 360.017 92.8449C362.975 92.8449 364.876 91.6261 365.725 89.1782C366.194 88.0428 366.434 85.5428 366.434 81.6782V78.7824Z" fill="white"/>
<path d="M393.006 91.8657H397.819L388.194 79.2824H387.069V91.8657H392.235V93.5532H374.36V91.8657H380.215V49.6782H374.36V47.9699H387.069V77.5741H388.694L398.798 68.3866H393.069V66.6991H407.36V68.3866H401.423L393.215 75.9491L406.006 91.8657H411.235V93.5532H393.006V91.8657Z" fill="white"/>
<path d="M123.369 104.144H128.536C130.786 104.144 132.494 104.487 133.661 105.164C134.827 105.831 135.411 106.987 135.411 108.623C135.411 109.696 135.109 110.581 134.515 111.289C133.916 111.987 133.062 112.43 131.952 112.623V112.748C132.713 112.888 133.4 113.118 134.015 113.435C134.64 113.758 135.124 114.216 135.473 114.81C135.833 115.394 136.015 116.154 136.015 117.081C136.015 118.722 135.452 119.993 134.327 120.894C133.202 121.784 131.666 122.227 129.723 122.227H123.369V104.144ZM125.64 111.831H128.994C130.536 111.831 131.588 111.591 132.161 111.102C132.744 110.602 133.036 109.862 133.036 108.873C133.036 107.873 132.687 107.159 131.994 106.727C131.296 106.3 130.182 106.081 128.64 106.081H125.64V111.831ZM125.64 113.748V120.31H129.286C130.895 120.31 132.015 119.998 132.64 119.373C133.265 118.748 133.577 117.93 133.577 116.914C133.577 115.972 133.249 115.206 132.598 114.623C131.942 114.039 130.786 113.748 129.119 113.748H125.64Z" fill="white"/>
<path d="M155.624 113.164C155.624 115.039 155.301 116.675 154.666 118.06C154.025 119.451 153.088 120.534 151.854 121.31C150.614 122.091 149.088 122.477 147.27 122.477C145.395 122.477 143.838 122.091 142.604 121.31C141.364 120.534 140.442 119.446 139.833 118.039C139.218 116.638 138.916 114.998 138.916 113.123C138.916 111.289 139.218 109.68 139.833 108.289C140.442 106.888 141.364 105.8 142.604 105.019C143.838 104.242 145.406 103.852 147.312 103.852C149.114 103.852 150.63 104.242 151.854 105.019C153.088 105.784 154.025 106.867 154.666 108.269C155.301 109.659 155.624 111.289 155.624 113.164ZM141.333 113.164C141.333 115.446 141.812 117.237 142.77 118.539C143.729 119.847 145.229 120.498 147.27 120.498C149.322 120.498 150.822 119.847 151.77 118.539C152.729 117.237 153.208 115.446 153.208 113.164C153.208 110.888 152.734 109.102 151.791 107.81C150.843 106.508 149.354 105.852 147.312 105.852C145.239 105.852 143.729 106.508 142.77 107.81C141.812 109.102 141.333 110.888 141.333 113.164Z" fill="white"/>
<path d="M175.406 113.164C175.406 115.039 175.083 116.675 174.447 118.06C173.807 119.451 172.869 120.534 171.635 121.31C170.395 122.091 168.869 122.477 167.051 122.477C165.176 122.477 163.619 122.091 162.385 121.31C161.145 120.534 160.223 119.446 159.614 118.039C158.999 116.638 158.697 114.998 158.697 113.123C158.697 111.289 158.999 109.68 159.614 108.289C160.223 106.888 161.145 105.8 162.385 105.019C163.619 104.242 165.187 103.852 167.093 103.852C168.895 103.852 170.411 104.242 171.635 105.019C172.869 105.784 173.807 106.867 174.447 108.269C175.083 109.659 175.406 111.289 175.406 113.164ZM161.114 113.164C161.114 115.446 161.593 117.237 162.551 118.539C163.51 119.847 165.01 120.498 167.051 120.498C169.104 120.498 170.604 119.847 171.551 118.539C172.51 117.237 172.989 115.446 172.989 113.164C172.989 110.888 172.515 109.102 171.572 107.81C170.624 106.508 169.135 105.852 167.093 105.852C165.02 105.852 163.51 106.508 162.551 107.81C161.593 109.102 161.114 110.888 161.114 113.164Z" fill="white"/>
<path d="M192.624 122.227H189.937L183.52 113.581L181.666 115.206V122.227H179.395V104.144H181.666V113.06C182.176 112.477 182.692 111.904 183.208 111.331C183.734 110.763 184.26 110.185 184.791 109.602L189.687 104.144H192.333L185.166 112.019L192.624 122.227Z" fill="white"/>
<path d="M205.323 117.394C205.323 118.993 204.74 120.243 203.573 121.144C202.417 122.034 200.849 122.477 198.865 122.477C197.849 122.477 196.911 122.399 196.052 122.248C195.188 122.097 194.474 121.888 193.906 121.623V119.435C194.516 119.716 195.271 119.966 196.177 120.185C197.078 120.394 198.01 120.498 198.969 120.498C200.302 120.498 201.313 120.243 202.01 119.727C202.703 119.201 203.052 118.487 203.052 117.581C203.052 116.998 202.927 116.508 202.677 116.102C202.427 115.701 201.99 115.331 201.365 114.998C200.74 114.654 199.885 114.279 198.802 113.873C197.245 113.321 196.078 112.638 195.302 111.831C194.521 111.013 194.135 109.904 194.135 108.498C194.135 107.555 194.375 106.737 194.865 106.039C195.349 105.347 196.021 104.821 196.885 104.456C197.76 104.081 198.766 103.894 199.906 103.894C200.891 103.894 201.792 103.987 202.615 104.164C203.448 104.347 204.208 104.591 204.906 104.894L204.198 106.852C203.573 106.576 202.885 106.347 202.135 106.164C201.396 105.987 200.641 105.894 199.865 105.894C198.724 105.894 197.87 106.138 197.302 106.623C196.729 107.097 196.448 107.727 196.448 108.519C196.448 109.133 196.573 109.638 196.823 110.039C197.073 110.446 197.479 110.81 198.052 111.144C198.635 111.477 199.411 111.821 200.385 112.164C201.453 112.555 202.354 112.977 203.094 113.435C203.828 113.883 204.385 114.414 204.76 115.039C205.135 115.664 205.323 116.451 205.323 117.394Z" fill="white"/>
<path d="M218.214 122.227H215.943V104.144H226.048V106.144H218.214V112.539H225.568V114.56H218.214V122.227Z" fill="white"/>
<path d="M244.881 113.164C244.881 115.039 244.558 116.675 243.922 118.06C243.282 119.451 242.344 120.534 241.11 121.31C239.87 122.091 238.344 122.477 236.527 122.477C234.652 122.477 233.094 122.091 231.86 121.31C230.62 120.534 229.698 119.446 229.089 118.039C228.474 116.638 228.172 114.998 228.172 113.123C228.172 111.289 228.474 109.68 229.089 108.289C229.698 106.888 230.62 105.8 231.86 105.019C233.094 104.242 234.662 103.852 236.568 103.852C238.37 103.852 239.886 104.242 241.11 105.019C242.344 105.784 243.282 106.867 243.922 108.269C244.558 109.659 244.881 111.289 244.881 113.164ZM230.589 113.164C230.589 115.446 231.068 117.237 232.027 118.539C232.985 119.847 234.485 120.498 236.527 120.498C238.579 120.498 240.079 119.847 241.027 118.539C241.985 117.237 242.464 115.446 242.464 113.164C242.464 110.888 241.99 109.102 241.047 107.81C240.099 106.508 238.61 105.852 236.568 105.852C234.495 105.852 232.985 106.508 232.027 107.81C231.068 109.102 230.589 110.888 230.589 113.164Z" fill="white"/>
<path d="M253.87 104.144C256.104 104.144 257.756 104.576 258.828 105.435C259.912 106.284 260.453 107.571 260.453 109.289C260.453 110.248 260.271 111.05 259.912 111.685C259.563 112.326 259.11 112.841 258.558 113.227C258.016 113.618 257.438 113.914 256.828 114.123L261.787 122.227H259.12L254.745 114.748H251.141V122.227H248.87V104.144H253.87ZM253.724 106.123H251.141V112.831H253.87C255.328 112.831 256.396 112.539 257.078 111.956C257.756 111.373 258.099 110.513 258.099 109.373C258.099 108.196 257.735 107.362 257.016 106.873C256.308 106.373 255.209 106.123 253.724 106.123Z" fill="white"/>
<path d="M282.944 122.227L280.756 116.623H273.59L271.444 122.227H269.131L276.194 104.06H278.256L285.298 122.227H282.944ZM280.069 114.602L278.048 109.123C277.991 108.998 277.902 108.763 277.777 108.414C277.663 108.055 277.553 107.685 277.444 107.31C277.345 106.925 277.262 106.623 277.194 106.414C277.053 106.946 276.907 107.456 276.756 107.956C276.616 108.456 276.496 108.847 276.402 109.123L274.34 114.602H280.069Z" fill="white"/>
<path d="M287.774 122.227V104.144H290.045V120.206H297.962V122.227H287.774Z" fill="white"/>
<path d="M301.046 122.227V104.144H303.317V120.206H311.234V122.227H301.046Z" fill="white"/>
<path d="M332.638 122.227L330.45 116.623H323.284L321.138 122.227H318.825L325.888 104.06H327.95L334.992 122.227H332.638ZM329.763 114.602L327.742 109.123C327.685 108.998 327.596 108.763 327.471 108.414C327.356 108.055 327.247 107.685 327.138 107.31C327.039 106.925 326.955 106.623 326.888 106.414C326.747 106.946 326.601 107.456 326.45 107.956C326.31 108.456 326.19 108.847 326.096 109.123L324.034 114.602H329.763Z" fill="white"/>
<path d="M345.322 112.685H351.572V121.539C350.598 121.862 349.614 122.097 348.614 122.248C347.614 122.399 346.478 122.477 345.218 122.477C343.343 122.477 341.76 122.102 340.468 121.352C339.187 120.602 338.218 119.534 337.551 118.144C336.885 116.743 336.551 115.091 336.551 113.185C336.551 111.31 336.916 109.68 337.655 108.289C338.39 106.888 339.458 105.805 340.864 105.039C342.265 104.279 343.952 103.894 345.926 103.894C346.937 103.894 347.895 103.987 348.801 104.164C349.702 104.347 350.541 104.612 351.322 104.956L350.468 106.935C349.827 106.659 349.103 106.414 348.301 106.206C347.494 105.998 346.661 105.894 345.801 105.894C343.635 105.894 341.947 106.55 340.739 107.852C339.53 109.159 338.926 110.935 338.926 113.185C338.926 114.618 339.155 115.888 339.614 116.998C340.083 118.112 340.822 118.972 341.822 119.581C342.822 120.196 344.135 120.498 345.76 120.498C346.551 120.498 347.223 120.456 347.78 120.373C348.333 120.289 348.843 120.196 349.301 120.081V114.706H345.322V112.685Z" fill="white"/>
<path d="M366.011 122.227H355.907V104.144H366.011V106.144H358.178V111.789H365.553V113.769H358.178V120.227H366.011V122.227Z" fill="white"/>
<path d="M380.239 117.394C380.239 118.993 379.656 120.243 378.489 121.144C377.333 122.034 375.765 122.477 373.781 122.477C372.765 122.477 371.828 122.399 370.969 122.248C370.104 122.097 369.39 121.888 368.823 121.623V119.435C369.432 119.716 370.187 119.966 371.094 120.185C371.995 120.394 372.927 120.498 373.885 120.498C375.219 120.498 376.229 120.243 376.927 119.727C377.62 119.201 377.969 118.487 377.969 117.581C377.969 116.998 377.844 116.508 377.594 116.102C377.344 115.701 376.906 115.331 376.281 114.998C375.656 114.654 374.802 114.279 373.719 113.873C372.161 113.321 370.995 112.638 370.219 111.831C369.437 111.013 369.052 109.904 369.052 108.498C369.052 107.555 369.292 106.737 369.781 106.039C370.265 105.347 370.937 104.821 371.802 104.456C372.677 104.081 373.682 103.894 374.823 103.894C375.807 103.894 376.708 103.987 377.531 104.164C378.364 104.347 379.125 104.591 379.823 104.894L379.114 106.852C378.489 106.576 377.802 106.347 377.052 106.164C376.312 105.987 375.557 105.894 374.781 105.894C373.64 105.894 372.786 106.138 372.219 106.623C371.646 107.097 371.364 107.727 371.364 108.519C371.364 109.133 371.489 109.638 371.739 110.039C371.989 110.446 372.396 110.81 372.969 111.144C373.552 111.477 374.328 111.821 375.302 112.164C376.37 112.555 377.271 112.977 378.01 113.435C378.745 113.883 379.302 114.414 379.677 115.039C380.052 115.664 380.239 116.451 380.239 117.394Z" fill="white"/>
</svg>
